<?xml version="1.0" encoding="utf-8"?>
<!-- Generator: Adobe Illustrator 24.2.0, SVG Export Plug-In . SVG Version: 6.00 Build 0)  -->
<svg version="1.1" id="Layer_1" xmlns="http://www.w3.org/2000/svg" xmlns:xlink="http://www.w3.org/1999/xlink" x="0px" y="0px"
	 viewBox="0 0 112 72" style="enable-background:new 0 0 112 72;" xml:space="preserve">
<style type="text/css">
	.st0{fill:none;stroke:#FFA5AB;stroke-width:1.1197;stroke-miterlimit:10;}
	.st1{fill:#FFA5AB;}
</style>
<g>
	<g>
		<path class="st1" d="M75.4,39.7c0,4.5-0.7,9.2-3,13.4c-1.2,2.1-2.7,4-4.6,5.5c-1.9,1.5-4.1,2.7-6.4,3.3c-2.3,0.7-4.8,0.9-7.1,0.7
			c-2.4-0.2-4.8-0.9-6.9-2c-2.2-1.1-4.1-2.7-5.6-4.6c-1.5-1.9-2.7-4-3.5-6.2c-0.8-2.2-1.3-4.5-1.4-6.8c-0.1-1.1-0.1-2.3-0.1-3.4
			l0.2-1.8c0.1-0.6,0.1-1.2,0.2-1.7c0.8-4.5,2.6-8.6,4.5-12.4c3.9-7.7,8.7-14.8,14-21.5l0.7-0.8l0.5,0.8l0,0
			c2.2,2.7,4.2,5.5,6.2,8.4c2,2.9,3.8,5.8,5.5,8.9c1.7,3,3.3,6.2,4.6,9.5c0.7,1.6,1.2,3.4,1.7,5.1l0.6,2.7L75.4,39.7z M71.1,39.7
			c0.1-3-0.8-6.2-1.9-9.4c-1.1-3.2-2.4-6.3-3.9-9.3c-1.5-3.1-3-6.1-4.7-9.1C59,9,57.2,6,55.4,3.1l0,0l1.2,0
			c-2.2,3.6-4.3,7.2-6.3,10.9c-2,3.7-3.9,7.4-5.5,11.3c-0.8,1.9-1.6,3.8-2.2,5.8c-0.6,1.9-1.1,3.9-1.4,5.8c-0.1,0.5-0.1,1-0.1,1.4
			l-0.1,1.4c0.1,1,0,2,0.2,2.9c0.2,2,0.7,3.8,1.3,5.6c1.3,3.6,3.8,6.5,7,8.1c3.2,1.6,7.1,1.9,10.6,1c3.5-0.9,6.4-3.3,8.3-6.5
			C70.3,47.6,71,43.7,71.1,39.7z"/>
	</g>
	<g>
		<path class="st1" d="M85.3,54.8c-2.2,3.7-5.1,7.1-9,9.4c-2,1.1-4.1,1.9-6.4,2.3c-2.3,0.3-4.6,0.2-6.8-0.4
			c-2.2-0.6-4.3-1.6-6.1-2.9c-1.8-1.3-3.4-3-4.7-4.9c-2.5-3.9-3.2-8.7-2.3-13c0.4-2.1,1.1-4.2,2-6.2c0.4-1,1-1.9,1.5-2.8l0.9-1.4
			c0.3-0.4,0.6-0.9,1-1.3c2.8-3.3,6.1-5.8,9.5-8.1c3.4-2.3,6.9-4.3,10.5-6.2c3.6-1.9,7.3-3.6,11-5.1l0.9-0.4l0.1,1l0,0
			c0.6,3.3,1,6.5,1.3,9.8c0.3,3.3,0.4,6.6,0.4,9.9c0,3.3-0.3,6.7-0.8,10c-0.2,1.7-0.7,3.4-1.1,5l-0.8,2.5L85.3,54.8z M81.5,52.6
			c1.4-2.4,2.2-5.5,2.8-8.6c0.6-3.1,0.9-6.3,1.2-9.5c0.2-3.2,0.4-6.4,0.5-9.7c0.1-3.2,0.1-6.5,0.1-9.8l0,0l1,0.6
			C80,19.3,72.9,23.3,66.6,28c-3.2,2.4-6.2,4.9-8.6,7.9c-0.3,0.4-0.6,0.7-0.8,1.1l-0.8,1.1c-0.4,0.9-0.9,1.7-1.2,2.6
			c-0.8,1.7-1.3,3.5-1.6,5.3c-0.6,3.6,0.1,7.3,2,10.2c1.9,2.9,5.1,5.1,8.5,5.9c3.4,0.9,7,0.3,10-1.5C77.2,58.7,79.7,55.9,81.5,52.6z
			"/>
	</g>
	<g>
		<path class="st1" d="M86.7,67c-3.5,2-7.6,3.5-11.9,3.5c-2.1,0-4.3-0.4-6.3-1.2c-2-0.8-3.9-2-5.4-3.5c-3.1-3.1-5-7.1-5.2-11.5
			c-0.2-4.4,1.5-8.6,4.3-11.8c1.4-1.6,2.9-3,4.6-4.1c0.8-0.6,1.7-1.1,2.6-1.6l1.4-0.7c0.5-0.2,0.9-0.5,1.4-0.6
			c3.9-1.3,7.8-1.8,11.6-2.1c3.9-0.3,7.7-0.2,11.6-0.1c3.9,0.2,7.7,0.5,11.5,1l1,0.1l-0.4,0.8l0,0c-1,3-2.3,5.9-3.6,8.7
			c-1.3,2.8-2.8,5.6-4.4,8.4c-1.6,2.7-3.4,5.4-5.4,7.9C92,62.8,89.8,65.2,86.7,67z M84.7,63.5c2.3-1.3,4.4-3.5,6.4-5.7
			c2-2.2,3.8-4.7,5.5-7.2c1.7-2.5,3.4-5.1,5-7.8c1.6-2.6,3.2-5.3,4.7-8l0,0l0.6,1c-7.6-0.4-15.2-0.5-22.7,0.4
			c-3.7,0.4-7.4,1.1-10.8,2.4c-0.4,0.1-0.8,0.3-1.2,0.5l-1.2,0.6c-0.7,0.5-1.5,0.9-2.2,1.5c-1.5,1-2.7,2.3-3.8,3.6
			c-2.2,2.7-3.4,6-3.2,9.3c0.2,3.3,1.8,6.6,4.2,8.9c2.4,2.3,5.6,3.5,9,3.5C78.2,66.5,81.6,65.3,84.7,63.5z"/>
	</g>
	<g>
		<path class="st1" d="M30.5,52.6c1.9,3.2,4.3,6.1,7.4,7.9c3,1.8,6.6,2.4,10,1.5c3.4-0.8,6.6-3,8.5-5.9c1.9-2.9,2.6-6.6,2-10.2
			c-0.3-1.8-0.8-3.6-1.6-5.3c-0.3-0.9-0.8-1.7-1.2-2.6L54.8,37c-0.2-0.4-0.5-0.8-0.8-1.1c-2.3-2.9-5.4-5.5-8.6-7.9
			c-6.3-4.7-13.4-8.7-20.5-12.3l1-0.6l0,0c0,3.3,0,6.5,0.1,9.8c0.1,3.2,0.2,6.5,0.5,9.7c0.3,3.2,0.6,6.4,1.2,9.5
			C28.3,47.1,29,50.2,30.5,52.6z M26.7,54.8l-1.2-2.5l-0.8-2.5c-0.4-1.7-0.9-3.4-1.1-5c-0.5-3.4-0.8-6.7-0.8-10
			c0-3.3,0.1-6.6,0.4-9.9c0.3-3.3,0.7-6.6,1.3-9.8l0,0l0.1-1l0.9,0.4c3.8,1.5,7.4,3.3,11,5.1c3.6,1.9,7.1,3.9,10.5,6.2
			c3.4,2.3,6.7,4.8,9.5,8.1c0.4,0.4,0.7,0.8,1,1.3l0.9,1.4c0.5,0.9,1.1,1.8,1.5,2.8c0.9,1.9,1.6,4,2,6.2c0.9,4.3,0.2,9.1-2.3,13
			c-1.2,1.9-2.8,3.6-4.7,4.9c-1.8,1.3-3.9,2.3-6.1,2.9c-2.2,0.6-4.5,0.7-6.8,0.4c-2.3-0.3-4.5-1.1-6.4-2.3
			C31.8,61.9,28.9,58.5,26.7,54.8z"/>
	</g>
	<g>
		<path class="st1" d="M27.3,63.5c3.1,1.8,6.5,3,9.9,3c3.4,0,6.6-1.2,9-3.5c2.4-2.3,4-5.6,4.2-8.9c0.2-3.3-1-6.7-3.2-9.3
			c-1.1-1.3-2.4-2.6-3.8-3.6c-0.7-0.6-1.5-1-2.2-1.5l-1.2-0.6c-0.4-0.2-0.8-0.4-1.2-0.5c-3.3-1.3-7.1-2-10.8-2.4
			c-7.5-0.9-15.1-0.8-22.7-0.4l0.6-1l0,0c1.5,2.7,3.1,5.4,4.7,8c1.6,2.6,3.3,5.2,5,7.8c1.7,2.5,3.5,5,5.5,7.2
			C22.9,60,25,62.2,27.3,63.5z M25.3,67c-3.1-1.8-5.3-4.3-7.3-6.8c-2-2.5-3.8-5.1-5.4-7.9c-1.6-2.7-3.1-5.5-4.4-8.4
			c-1.3-2.9-2.6-5.7-3.6-8.7l0,0l-0.4-0.8l1-0.1c3.8-0.5,7.7-0.8,11.5-1c3.8-0.2,7.7-0.2,11.6,0.1c3.9,0.3,7.8,0.8,11.6,2.1
			c0.5,0.1,1,0.4,1.4,0.6l1.4,0.7c0.9,0.5,1.8,1,2.6,1.6c1.7,1.1,3.2,2.5,4.6,4.1c2.7,3.1,4.5,7.4,4.3,11.8
			c-0.2,4.4-2.1,8.5-5.2,11.5c-1.5,1.5-3.4,2.7-5.4,3.5c-2,0.8-4.2,1.2-6.3,1.2C32.8,70.5,28.8,69,25.3,67z"/>
	</g>
</g>
</svg>
